<svg width="27" height="27" viewBox="0 0 27 27" fill="none" xmlns="http://www.w3.org/2000/svg">
<g id="Notifications">
<path id="Vector" d="M6.00473 14.5795L5.18714 14.4867L6.00473 14.5795ZM6.49535 10.2568L7.31294 10.3496L6.49535 10.2568ZM5.05519 16.7264L4.42861 16.1931H4.42861L5.05519 16.7264ZM21.4946 14.4867C21.4434 14.0352 21.0358 13.7107 20.5842 13.7619C20.1327 13.8132 19.8082 14.2208 19.8594 14.6723L21.4946 14.4867ZM21.6266 16.7264L21 17.2598V17.2598L21.6266 16.7264ZM10.8505 5.20838L11.117 5.98685C11.4498 5.87292 11.6733 5.56009 11.6733 5.20838H10.8505ZM14.6069 4.00915C14.9029 4.35395 15.4224 4.39348 15.7672 4.09745C16.112 3.80142 16.1515 3.28193 15.8555 2.93713L14.6069 4.00915ZM17.4027 22.6411C17.5622 22.2156 17.3465 21.7413 16.921 21.5818C16.4955 21.4224 16.0212 21.638 15.8617 22.0636L17.4027 22.6411ZM10.82 22.0636C10.6605 21.638 10.1863 21.4224 9.76075 21.5818C9.33521 21.7413 9.11952 22.2156 9.27901 22.6411L10.82 22.0636ZM19.6791 19.3353H7.00261V20.9809H19.6791V19.3353ZM6.82232 14.6723L7.31294 10.3496L5.67776 10.164L5.18714 14.4867L6.82232 14.6723ZM5.68176 17.2598C6.31514 16.5157 6.71458 15.6217 6.82232 14.6723L5.18714 14.4867C5.11817 15.0945 4.86087 15.6853 4.42861 16.1931L5.68176 17.2598ZM19.8594 14.6723C19.9672 15.6217 20.3666 16.5157 21 17.2598L22.2531 16.1931C21.8209 15.6853 21.5636 15.0945 21.4946 14.4867L19.8594 14.6723ZM7.00261 19.3353C6.28395 19.3353 5.7756 18.9799 5.54096 18.5664C5.31444 18.1672 5.31778 17.6874 5.68176 17.2598L4.42861 16.1931C3.58902 17.1794 3.56309 18.4154 4.10969 19.3786C4.64816 20.3275 5.71531 20.9809 7.00261 20.9809V19.3353ZM19.6791 20.9809C20.9664 20.9809 22.0336 20.3275 22.5721 19.3786C23.1187 18.4154 23.0927 17.1794 22.2531 16.1931L21 17.2598C21.364 17.6874 21.3673 18.1672 21.1408 18.5664C20.9061 18.9799 20.3978 19.3353 19.6791 19.3353V20.9809ZM11.6733 5.20838V5.09459H10.0276V5.20838H11.6733ZM7.31294 10.3496C7.53568 8.38712 9.01369 6.707 11.117 5.98685L10.5839 4.4299C7.98631 5.3193 5.98412 7.46471 5.67776 10.164L7.31294 10.3496ZM13.3409 1.78135C11.511 1.78135 10.0276 3.26474 10.0276 5.09459H11.6733C11.6733 4.17362 12.4199 3.42703 13.3409 3.42703V1.78135ZM13.3409 3.42703C13.847 3.42703 14.2998 3.65148 14.6069 4.00915L15.8555 2.93713C15.2491 2.23085 14.347 1.78135 13.3409 1.78135V3.42703ZM15.8617 22.0636C15.5077 23.0083 14.5308 23.7237 13.3409 23.7237V25.3694C15.19 25.3694 16.7986 24.2531 17.4027 22.6411L15.8617 22.0636ZM13.3409 23.7237C12.151 23.7237 11.1741 23.0083 10.82 22.0636L9.27901 22.6411C9.88314 24.2531 11.4917 25.3694 13.3409 25.3694V23.7237Z" fill="#1B1E28"/>
<path id="Vector_2" d="M23.2149 8.08982C23.2149 9.90759 21.7414 11.3812 19.9236 11.3812C18.1058 11.3812 16.6322 9.90759 16.6322 8.08982C16.6322 6.27205 18.1058 4.79846 19.9236 4.79846C21.7414 4.79846 23.2149 6.27205 23.2149 8.08982Z" fill="#FF7029" stroke="white" stroke-width="1.09712" stroke-linecap="round"/>
</g>
</svg>
